HIERARCHY
ROOT Hips
{
	OFFSET 0.00000 0.00000 0.00000
	CHANNELS 6 Xposition Yposition Zposition Zrotation Yrotation Xrotation 
	JOINT LHipJoint
	{
		OFFSET 0 0 0
		CHANNELS 3 Zrotation Yrotation Xrotation
		JOINT LeftHip
		{
			OFFSET 1.84395 -1.68683 0.74144
			CHANNELS 3 Zrotation Yrotation Xrotation
			JOINT LeftKnee
			{
				OFFSET 2.27037 -6.23779 0.00000
				CHANNELS 3 Zrotation Yrotation Xrotation
				JOINT LeftAnkle
				{
					OFFSET 2.56918 -7.05877 0.00000
					CHANNELS 3 Zrotation Yrotation Xrotation
					JOINT LeftToe
					{
						OFFSET 0.22276 -0.61202 1.71784
						CHANNELS 3 Zrotation Yrotation Xrotation
						End Site
						{
							OFFSET 0.00000 -0.00000 0.91613
						}
					}
				}
			}
		}
	}
	JOINT RHipJoint
	{
		OFFSET 0 0 0
		CHANNELS 3 Zrotation Yrotation Xrotation
		JOINT RightHip
		{
			OFFSET -1.76833 -1.68684 0.74144
			CHANNELS 3 Zrotation Yrotation Xrotation
			JOINT RightKnee
			{
				OFFSET -2.49360 -6.85110 0.00000
				CHANNELS 3 Zrotation Yrotation Xrotation
				JOINT RightAnkle
				{
					OFFSET -2.55538 -7.02085 0.00000
					CHANNELS 3 Zrotation Yrotation Xrotation
					JOINT RightToe
					{
						OFFSET -0.21516 -0.59115 1.68050
						CHANNELS 3 Zrotation Yrotation Xrotation
						End Site
						{
							OFFSET -0.00000 -0.00000 0.89604
						}
					}
				}
			}
		}
	}
	JOINT lowerback
	{
		OFFSET 0 0 0
		CHANNELS 3 Zrotation Yrotation Xrotation
		JOINT Chest
		{
			OFFSET 0.06382 1.72312 -0.19613
			CHANNELS 3 Zrotation Yrotation Xrotation
			JOINT Chest2
			{
				OFFSET -0.00055 1.73507 0.23859
				CHANNELS 3 Zrotation Yrotation Xrotation
				JOINT lowerneck
				{
					OFFSET 0 0 0
					CHANNELS 3 Zrotation Yrotation Xrotation
					JOINT Neck
					{
						OFFSET 0.03638 1.65562 0.09633
						CHANNELS 3 Zrotation Yrotation Xrotation
						JOINT Head
						{
							OFFSET 0.06388 1.62807 -0.32386
							CHANNELS 3 Zrotation Yrotation Xrotation
							End Site
							{
								OFFSET 0.00995 1.67644 -0.12021
							}
						}
					}
				}
				JOINT LeftCollar
				{
					OFFSET 0 0 0
					CHANNELS 3 Zrotation Yrotation Xrotation
					JOINT LeftShoulder
					{
						OFFSET 3.09648 1.42991 0.28122
CHANNELS 3 Zrotation Xrotation Yrotation
						JOINT LeftElbow
						{
OFFSET 0 -5.118780 -0.000000
CHANNELS 3 Zrotation Xrotation Yrotation
							JOINT LeftWrist
							{
OFFSET 0 -3.599710 0.000000
CHANNELS 3 Zrotation Xrotation Yrotation
								JOINT lhand
								{
									OFFSET 0 0 0
CHANNELS 3 Zrotation Xrotation Yrotation
									JOINT LFingers
									{
OFFSET 0 -0.628770 0.000000
CHANNELS 3 Zrotation Xrotation Yrotation
										End Site
										{
OFFSET 0 -0.506930 0.000000
										}
									}
								}
								JOINT LThumb
								{
OFFSET 0 0.000000 0.000000
CHANNELS 3 Zrotation Xrotation Yrotation
									End Site
									{
OFFSET 0 -0.514670 0.514670
									}
								}
							}
						}
					}
				}
				JOINT RightCollar
				{
					OFFSET 0 0 0
					CHANNELS 3 Zrotation Yrotation Xrotation
					JOINT RightShoulder
					{
						OFFSET -3.33565 1.14597 0.05047
CHANNELS 3 Zrotation Xrotation Yrotation
						JOINT RightElbow
						{
OFFSET 0 -5.490200 0.000000
CHANNELS 3 Zrotation Xrotation Yrotation
							JOINT RightWrist
							{
OFFSET 0 -3.206590 -0.000000
CHANNELS 3 Zrotation Xrotation Yrotation
								JOINT rhand
								{
									OFFSET 0 0 0
CHANNELS 3 Zrotation Xrotation Yrotation
									JOINT RFingers
									{
OFFSET 0 -0.691880 0.000000
CHANNELS 3 Zrotation Xrotation Yrotation
										End Site
										{
OFFSET 0 -0.557810 0.000000
										}
									}
								}
								JOINT RThumb
								{
OFFSET 0 0.000000 0.000000
CHANNELS 3 Zrotation Xrotation Yrotation
									End Site
									{
OFFSET 0 -0.566330 0.566330
									}
								}
							}
						}
					}
				}
			}
		}
	}
}
MOTION
Frames: 6
Frame Time: 0.008333333333333333
0.011070 17.740764 7.300725 -9.724756 0.908385 10.741536 0.000000 0.000000 0.000000 -3.637429 -27.323989 -2.286832 0.053948 1.498657 4.121906 -3.184158 30.165513 -18.128672 0.281821 -3.414294 -9.434462 0.000000 0.000000 0.000000 24.396838 20.946309 -8.868614 -0.446123 -4.285404 11.880944 0.243882 -14.470413 -17.582782 -0.002002 0.288334 -0.792190 9.722996 3.559424 5.559515 -0.009253 5.024211 5.824446 -5.505753 2.897070 3.854801 -5.247227 -4.716021 -2.654212 11.598983 -7.781574 16.961469 4.074860 -3.307736 6.200674 0.000000 0.000000 0.000000 59.383953 -53.175350 -72.890267 46.185407 -51.336167 23.160664 3.509611 -79.674429 6.736921 0.000000 0.000000 0.000000 -7.125000 0.000000 0.000000 -16.943233 23.267298 -9.270807 0.000000 0.000000 0.000000 -53.171349 -50.552183 75.152932 -57.984868 -55.748630 -32.669794 20.193504 -54.955616 28.006804 0.000000 0.000000 0.000000 7.125000 0.000000 0.000000 49.663788 51.255410 -9.692336
0.039362 17.734520 7.287896 -9.327326 0.299128 10.732314 0.000000 0.000000 0.000000 -4.247946 -26.745039 -2.369874 0.057011 1.540149 4.236411 -3.113521 29.933246 -18.331193 0.243269 -3.173934 -8.763478 0.000000 0.000000 0.000000 23.802625 21.214266 -8.871357 -0.448349 -4.295875 11.910578 0.239096 -14.307303 -17.373084 -0.004189 0.415344 -1.141205 9.294952 3.188953 5.361079 0.646771 4.472190 5.999951 -4.565365 2.595284 3.956849 -5.307894 -4.559104 -3.073534 11.210490 -7.494532 16.924796 3.969908 -3.188324 6.224628 0.000000 0.000000 0.000000 59.036731 -52.878507 -72.508241 46.236979 -51.360249 23.200948 3.625076 -79.164867 6.979150 0.000000 0.000000 0.000000 -7.125000 0.000000 0.000000 -16.832391 23.034277 -9.299409 0.000000 0.000000 0.000000 -52.851707 -50.251980 74.757342 -57.766669 -55.684794 -32.489498 20.560568 -54.809274 27.768211 0.000000 0.000000 0.000000 7.125000 0.000000 0.000000 49.749811 51.018411 -9.374505
0.073786 17.725927 7.272203 -8.968989 -0.310551 10.728887 0.000000 0.000000 0.000000 -4.786999 -26.122636 -2.627991 0.064279 1.636044 4.500922 -3.036033 29.672419 -18.518774 0.213082 -2.971776 -8.200255 0.000000 0.000000 0.000000 23.210141 21.596786 -8.919270 -0.458449 -4.343298 12.044540 0.223481 -14.151596 -17.329092 -0.002900 0.347282 -0.954131 9.066647 2.813491 5.041227 1.328939 3.904988 6.166436 -3.704775 2.296333 4.154378 -5.160912 -4.432840 -3.155141 10.614231 -7.223748 16.722594 3.768317 -3.093166 6.125481 0.000000 0.000000 0.000000 58.950381 -53.263123 -72.751895 45.832687 -51.169874 22.885631 3.787565 -78.082101 6.128084 0.000000 0.000000 0.000000 -7.125000 0.000000 0.000000 -16.819189 23.849463 -8.959533 0.000000 0.000000 0.000000 -52.824006 -49.775068 74.392038 -57.996776 -55.752072 -32.679672 18.344418 -55.356995 28.821752 0.000000 0.000000 0.000000 7.125000 0.000000 0.000000 48.885381 52.175607 -10.748217
0.117654 17.716958 7.259539 -8.454706 -1.204553 10.703951 0.000000 0.000000 0.000000 -5.622091 -25.407837 -2.672024 0.065939 1.656845 4.558220 -3.010718 29.602627 -18.669179 0.188533 -2.795808 -7.710720 0.000000 0.000000 0.000000 22.419714 21.926523 -8.996258 -0.471248 -4.402934 12.212957 0.210545 -13.872825 -17.045705 -0.012222 0.709332 -1.949349 9.809631 3.201072 4.833771 1.235237 4.419025 6.060132 -4.194477 2.587695 4.309258 -3.062225 -4.987142 -2.577409 9.900903 -7.987512 16.090158 3.146200 -3.417550 5.787945 0.000000 0.000000 0.000000 58.659402 -55.667634 -75.765056 45.370608 -50.948634 22.526253 3.788367 -76.881167 6.107666 0.000000 0.000000 0.000000 -7.125000 0.000000 0.000000 -16.821090 23.869050 -8.952726 0.000000 0.000000 0.000000 -51.435505 -46.872843 72.114571 -56.233936 -55.217783 -31.227576 19.797441 -54.925589 27.999300 0.000000 0.000000 0.000000 7.125000 0.000000 0.000000 49.342360 51.319655 -9.687448
0.174080 17.711178 7.255317 -7.817739 -2.546288 10.764058 0.000000 0.000000 0.000000 -6.698817 -24.464964 -2.701362 0.070211 1.709734 4.704169 -3.001194 29.620214 -18.970375 0.180400 -2.735768 -7.544045 0.000000 0.000000 0.000000 21.390895 22.597933 -9.103991 -0.483805 -4.460276 12.375344 0.189807 -13.492017 -16.711380 -0.019114 0.892883 -2.454130 8.974852 2.501964 4.575197 2.195871 3.414017 6.088944 -2.733237 2.021168 4.202484 -2.763579 -4.412176 -3.196620 8.554337 -7.085855 16.769230 2.716819 -3.018461 5.987712 0.000000 0.000000 0.000000 57.792759 -55.087747 -76.150787 44.546350 -50.544270 21.887957 4.043060 -75.481272 5.690225 0.000000 0.000000 0.000000 -7.125000 0.000000 0.000000 -16.690093 24.268747 -8.714948 0.000000 0.000000 0.000000 -50.793535 -46.798766 72.947008 -55.871279 -55.105397 -30.929343 19.806559 -55.171686 28.150849 0.000000 0.000000 0.000000 7.125000 0.000000 0.000000 49.480183 51.427914 -9.884722
0.245126 17.707100 7.256667 -7.126283 -4.225545 11.008411 0.000000 0.000000 0.000000 -7.876476 -23.914003 -2.749448 0.075120 1.768549 4.866353 -3.086520 30.126244 -19.969678 0.124557 -2.274255 -6.264185 0.000000 0.000000 0.000000 20.143806 23.287639 -9.597625 -0.509354 -4.574922 12.699979 0.148038 -12.888880 -16.336029 -0.047136 1.400372 -3.851168 8.485383 1.936654 4.188141 2.888074 2.591255 6.049316 -1.736311 1.570709 4.216398 -2.124104 -3.741691 -3.685844 7.303504 -6.082915 17.356954 2.272850 -2.558098 6.140774 0.000000 0.000000 0.000000 56.747510 -55.071813 -76.807555 43.753729 -50.143081 21.277678 3.813007 -74.326529 5.488435 0.000000 0.000000 0.000000 -7.125000 0.000000 0.000000 -16.881083 24.462911 -8.743710 0.000000 0.000000 0.000000 -50.706702 -46.463593 73.654449 -56.182404 -55.203101 -31.184842 19.376580 -55.269553 28.107073 0.000000 0.000000 0.000000 7.125000 0.000000 0.000000 49.098782 51.471819 -9.831235
